<?xml version="1.0" encoding="utf-8"?>
<svg viewBox="0 0 500 500" xmlns="http://www.w3.org/2000/svg">
  <path d="M 447.384 1.299 L 1.38 1.299 L 1.38 497.817 L 50.934 497.817 L 50.934 50.953 L 447.384 50.953 L 447.384 348.861 L 100.493 348.861 L 100.493 398.513 L 50.934 398.513 L 50.934 448.163 L 100.493 448.163 L 100.493 398.513 L 496.942 398.513 L 496.942 1.299 L 447.384 1.299 Z" style="fill: rgb(255, 255, 255);" transform="matrix(1, 0, 0, 1, 7.105427357601002e-15, 2.842170943040401e-14)"/>
  <path d="M 206.227 118.429 L 289.087 118.429 L 289.087 141.685 L 206.227 141.685 L 206.227 118.429 Z M 164.797 164.942 L 164.797 141.685 L 206.227 141.685 L 206.227 164.942 L 164.797 164.942 Z M 144.082 188.198 L 144.082 164.942 L 164.797 164.942 L 164.797 188.198 L 144.082 188.198 Z M 144.082 211.455 L 144.082 188.198 L 123.367 188.198 L 123.367 211.455 L 144.082 211.455 Z M 164.797 234.711 L 144.082 234.711 L 144.082 211.455 L 164.797 211.455 L 164.797 234.711 Z M 206.227 257.968 L 164.797 257.968 L 164.797 234.711 L 206.227 234.711 L 206.227 257.968 Z M 289.087 257.968 L 289.087 281.224 L 206.227 281.224 L 206.227 257.968 L 289.087 257.968 Z M 330.517 234.711 L 330.517 257.968 L 289.087 257.968 L 289.087 234.711 L 330.517 234.711 Z M 351.232 211.455 L 351.232 234.711 L 330.517 234.711 L 330.517 211.455 L 351.232 211.455 Z M 351.232 188.198 L 371.946 188.198 L 371.946 211.455 L 351.232 211.455 L 351.232 188.198 Z M 330.517 164.942 L 351.232 164.942 L 351.232 188.198 L 330.517 188.198 L 330.517 164.942 Z M 330.517 164.942 L 330.517 141.685 L 289.087 141.685 L 289.087 164.942 L 330.517 164.942 Z M 226.942 176.57 L 268.372 176.57 L 268.372 223.083 L 226.942 223.083 L 226.942 176.57 Z" style="fill: rgb(255, 255, 255);" transform="matrix(1, 0, 0, 1, 7.105427357601002e-15, 2.842170943040401e-14)"/>
</svg>