<svg width="422.401" height="74.701" viewBox="0 0 422.401 74.701" xmlns="http://www.w3.org/2000/svg"><g id="svgGroup" stroke-linecap="round" fill-rule="evenodd" font-size="9pt" stroke="#ffffff" stroke-width="0.25mm" fill="#ffffff" style="stroke:#ffffff;stroke-width:0.25mm;fill:#ffffff"><path d="M 363.601 50.1 L 317.901 50.1 L 317.901 44.8 L 359.801 44.8 L 357.001 46.9 A 22.634 22.634 0 0 0 356.268 41.039 A 19.05 19.05 0 0 0 354.551 36.75 Q 352.101 32.3 347.901 29.8 A 17.782 17.782 0 0 0 340.707 27.437 A 22.358 22.358 0 0 0 338.201 27.3 A 20.019 20.019 0 0 0 332.028 28.228 A 17.942 17.942 0 0 0 328.501 29.8 Q 324.201 32.3 321.801 36.8 A 20.365 20.365 0 0 0 319.59 43.94 A 25.622 25.622 0 0 0 319.401 47.1 L 319.401 48.2 Q 319.401 54.2 322.051 58.75 Q 324.701 63.3 329.451 65.85 A 21.44 21.44 0 0 0 337.155 68.22 A 26.835 26.835 0 0 0 340.301 68.4 A 23.898 23.898 0 0 0 347.404 67.362 A 22.114 22.114 0 0 0 349.251 66.7 Q 353.401 65 356.401 61.5 L 360.401 66.1 Q 356.901 70.3 351.651 72.5 Q 346.401 74.7 340.101 74.7 A 32.996 32.996 0 0 1 332.429 73.844 A 26.321 26.321 0 0 1 325.701 71.25 Q 319.501 67.8 316.001 61.75 A 26.104 26.104 0 0 1 312.668 51.229 A 32.409 32.409 0 0 1 312.501 47.9 Q 312.501 40.1 315.851 34.1 Q 319.201 28.1 325.051 24.65 A 25.072 25.072 0 0 1 336.845 21.23 A 30.064 30.064 0 0 1 338.201 21.2 A 27.896 27.896 0 0 1 345.801 22.202 A 23.815 23.815 0 0 1 351.351 24.55 Q 357.101 27.9 360.401 33.95 A 26.916 26.916 0 0 1 363.41 43.372 A 34.255 34.255 0 0 1 363.701 47.9 A 11.163 11.163 0 0 1 363.674 48.661 A 12.957 12.957 0 0 1 363.651 48.95 Q 363.601 49.5 363.601 50.1 Z M 110.001 43.7 L 110.001 74.2 L 102.901 74.2 L 102.901 44.4 A 26.47 26.47 0 0 0 102.495 39.608 Q 102.008 36.963 100.933 34.891 A 12.661 12.661 0 0 0 98.751 31.85 Q 94.71 27.712 87.494 27.603 A 26.007 26.007 0 0 0 87.101 27.6 A 23.5 23.5 0 0 0 82.169 28.094 A 17.937 17.937 0 0 0 77.351 29.85 Q 73.201 32.1 70.951 36.35 A 18.643 18.643 0 0 0 69.163 41.522 Q 68.701 43.881 68.701 46.6 L 68.701 74.2 L 61.601 74.2 L 61.601 0 L 68.701 0 L 68.701 36.1 L 67.301 33.4 Q 69.801 27.7 75.301 24.45 A 23 23 0 0 1 83.209 21.62 A 30.848 30.848 0 0 1 88.401 21.2 A 28.355 28.355 0 0 1 94.237 21.775 A 21.96 21.96 0 0 1 99.651 23.65 Q 104.501 26.1 107.251 31.1 A 20.661 20.661 0 0 1 109.224 36.359 Q 110.001 39.663 110.001 43.7 Z M 399.001 74.2 L 391.701 74.2 L 368.401 21.7 L 375.801 21.7 L 397.201 70.4 L 393.701 70.4 L 415.401 21.7 L 422.401 21.7 L 399.001 74.2 Z M 47.701 31.6 L 42.401 35.2 A 17.707 17.707 0 0 0 38.736 31.19 A 15.736 15.736 0 0 0 35.701 29.3 A 19.911 19.911 0 0 0 27.44 27.404 A 23.014 23.014 0 0 0 27.001 27.4 A 21.166 21.166 0 0 0 20.43 28.396 A 19.092 19.092 0 0 0 16.901 29.95 Q 12.401 32.5 9.801 37.1 Q 7.201 41.7 7.201 47.9 A 24.984 24.984 0 0 0 7.772 53.361 A 19.374 19.374 0 0 0 9.801 58.7 Q 12.401 63.3 16.901 65.85 A 19.767 19.767 0 0 0 25.618 68.36 A 23.735 23.735 0 0 0 27.001 68.4 A 20.332 20.332 0 0 0 34.176 67.146 A 19.286 19.286 0 0 0 35.701 66.5 Q 39.701 64.6 42.401 60.7 L 47.701 64.3 Q 44.601 69.4 39.201 72.05 A 26.06 26.06 0 0 1 30.07 74.564 A 31.808 31.808 0 0 1 27.101 74.7 A 30.244 30.244 0 0 1 18.848 73.608 A 26.098 26.098 0 0 1 13.151 71.25 Q 7.001 67.8 3.501 61.75 A 26.104 26.104 0 0 1 0.168 51.229 A 32.409 32.409 0 0 1 0.001 47.9 Q 0.001 40 3.501 34 A 26.78 26.78 0 0 1 3.555 33.906 A 24.909 24.909 0 0 1 13.151 24.6 A 27.372 27.372 0 0 1 24 21.34 A 33.648 33.648 0 0 1 27.101 21.2 A 29.757 29.757 0 0 1 34.413 22.069 A 25.283 25.283 0 0 1 39.201 23.8 Q 44.601 26.4 47.701 31.6 Z M 145.101 44.5 L 163.201 44.5 L 163.201 49.8 L 145.301 49.8 Q 139.22 49.8 136.116 51.528 A 7.196 7.196 0 0 0 134.751 52.5 A 8.681 8.681 0 0 0 131.808 58.797 A 10.588 10.588 0 0 0 131.801 59.2 A 9.311 9.311 0 0 0 132.495 62.851 Q 133.346 64.87 135.24 66.353 A 10.908 10.908 0 0 0 135.301 66.4 Q 138.801 69.1 145.101 69.1 A 21.942 21.942 0 0 0 150.343 68.501 A 17.126 17.126 0 0 0 155.451 66.35 Q 159.801 63.6 161.801 58.4 L 163.401 63.3 Q 161.401 68.5 156.451 71.6 A 19.364 19.364 0 0 1 150.472 74.019 Q 147.978 74.594 145.086 74.683 A 34.965 34.965 0 0 1 144.001 74.7 Q 138.217 74.7 133.923 72.826 A 18.899 18.899 0 0 1 133.751 72.75 A 17.314 17.314 0 0 1 130.018 70.509 A 13.859 13.859 0 0 1 127.101 67.35 A 13.753 13.753 0 0 1 124.83 60.406 A 16.945 16.945 0 0 1 124.801 59.4 A 14.846 14.846 0 0 1 125.895 53.679 A 14.216 14.216 0 0 1 126.751 51.95 A 11.8 11.8 0 0 1 129.788 48.552 Q 131.103 47.536 132.796 46.717 A 21.107 21.107 0 0 1 133.151 46.55 A 19.287 19.287 0 0 1 136.917 45.301 Q 138.856 44.857 141.162 44.659 A 46.173 46.173 0 0 1 145.101 44.5 Z M 168.901 74.2 L 162.101 74.2 L 162.101 62.6 L 161.801 60.7 L 161.801 41.3 A 19.203 19.203 0 0 0 161.397 37.237 Q 160.57 33.419 158.051 31 Q 154.98 28.053 149.464 27.518 A 26.609 26.609 0 0 0 146.901 27.4 Q 141.801 27.4 137.201 29.1 A 27.384 27.384 0 0 0 132.588 31.288 A 22.088 22.088 0 0 0 129.401 33.6 L 126.201 28.3 A 26.982 26.982 0 0 1 132.777 24.213 A 32.836 32.836 0 0 1 135.801 23.05 Q 141.401 21.2 147.601 21.2 A 33.041 33.041 0 0 1 153.794 21.744 Q 157.3 22.413 160.046 23.908 A 16.871 16.871 0 0 1 163.351 26.25 A 15.83 15.83 0 0 1 167.741 33.282 Q 168.575 35.877 168.809 39.039 A 34.664 34.664 0 0 1 168.901 41.6 L 168.901 74.2 Z M 189.401 59.4 L 189.401 10.1 L 196.501 10.1 L 196.501 59 A 14.449 14.449 0 0 0 196.754 61.793 Q 197.075 63.425 197.806 64.691 A 7.586 7.586 0 0 0 198.851 66.1 A 7.58 7.58 0 0 0 202.476 68.219 Q 203.706 68.552 205.176 68.594 A 14.97 14.97 0 0 0 205.601 68.6 A 13.473 13.473 0 0 0 209.281 68.119 A 10.575 10.575 0 0 0 213.401 65.9 L 215.901 71 A 12.822 12.822 0 0 1 211.752 73.494 A 15.202 15.202 0 0 1 210.851 73.8 Q 207.901 74.7 204.801 74.7 A 21.973 21.973 0 0 1 200.31 74.269 Q 197.54 73.691 195.43 72.334 A 12.159 12.159 0 0 1 193.401 70.7 Q 189.655 66.954 189.417 60.313 A 25.527 25.527 0 0 1 189.401 59.4 Z M 262.541 73.501 A 28.357 28.357 0 0 0 270.901 74.7 A 29.168 29.168 0 0 0 273.68 74.57 A 23.565 23.565 0 0 0 283.351 71.55 Q 288.801 68.4 292.001 62.4 Q 295.201 56.4 295.201 47.9 A 44.301 44.301 0 0 0 295.189 46.901 Q 295.111 43.438 294.486 40.42 A 25.399 25.399 0 0 0 291.951 33.35 A 26.952 26.952 0 0 0 291.213 32.083 A 22.203 22.203 0 0 0 283.251 24.3 A 22.948 22.948 0 0 0 278.394 22.236 A 26.309 26.309 0 0 0 270.901 21.2 Q 263.401 21.2 257.451 24.55 Q 251.501 27.9 248.101 33.9 A 25.209 25.209 0 0 0 245.498 40.619 A 31.863 31.863 0 0 0 244.701 47.9 A 33.425 33.425 0 0 0 244.97 52.197 A 26.431 26.431 0 0 0 248.101 61.85 Q 251.501 67.9 257.451 71.3 A 25.018 25.018 0 0 0 262.541 73.501 Z M 298.001 74.2 L 291.201 74.2 L 291.201 58.4 L 291.901 47.8 L 290.901 37.2 L 290.901 0 L 298.001 0 L 298.001 74.2 Z M 271.401 68.4 A 21.111 21.111 0 0 0 277.645 67.501 A 18.695 18.695 0 0 0 281.451 65.85 Q 285.901 63.3 288.451 58.65 A 20.562 20.562 0 0 0 290.752 51.571 A 26.257 26.257 0 0 0 291.001 47.9 A 25.455 25.455 0 0 0 290.44 42.439 A 19.608 19.608 0 0 0 288.451 37.1 Q 285.901 32.5 281.451 29.95 A 19.38 19.38 0 0 0 273.123 27.462 A 23.484 23.484 0 0 0 271.401 27.4 Q 265.901 27.4 261.501 29.95 Q 257.101 32.5 254.501 37.1 Q 251.901 41.7 251.901 47.9 Q 251.901 54 254.501 58.65 Q 257.101 63.3 261.501 65.85 A 19.039 19.039 0 0 0 270.043 68.36 A 22.881 22.881 0 0 0 271.401 68.4 Z M 212.501 27.6 L 180.001 27.6 L 180.001 21.7 L 212.501 21.7 L 212.501 27.6 Z M 225.848 73.198 A 5.014 5.014 0 0 0 229.501 74.7 Q 231.701 74.7 233.251 73.1 Q 234.801 71.5 234.801 69.2 A 6.878 6.878 0 0 0 234.769 68.534 A 5.025 5.025 0 0 0 233.251 65.3 Q 231.701 63.8 229.501 63.8 Q 227.301 63.8 225.751 65.3 Q 224.201 66.8 224.201 69.2 Q 224.201 71.5 225.751 73.1 A 6.191 6.191 0 0 0 225.848 73.198 Z" vector-effect="non-scaling-stroke"/></g></svg>