
<?xml version="1.0" standalone="no"?>
<!DOCTYPE svg PUBLIC "-//W3C//DTD SVG 20010904//EN"
 "http://www.w3.org/TR/2001/REC-SVG-20010904/DTD/svg10.dtd">
<svg version="1.0" xmlns="http://www.w3.org/2000/svg"
 width="225.000000pt" height="225.000000pt" viewBox="0 0 225.000000 225.000000"
 preserveAspectRatio="xMidYMid meet">

<g transform="translate(0.000000,225.000000) scale(0.100000,-0.100000)"
fill="#000000" stroke="none">
<path d="M430 1913 c-50 -34 -77 -91 -111 -230 -11 -49 -36 -153 -55 -233 -19
-80 -41 -172 -49 -205 -49 -212 -92 -398 -120 -515 -45 -187 -48 -204 -35
-265 21 -101 118 -182 229 -192 92 -8 193 47 237 129 7 15 32 102 54 195 61
256 72 297 79 305 4 4 30 -93 59 -216 71 -302 77 -322 120 -368 49 -52 101
-61 152 -26 50 34 73 83 104 216 15 64 33 142 41 172 8 30 26 102 39 160 189
805 207 879 228 930 11 25 31 57 45 72 25 26 25 28 10 52 -19 28 -64 41 -113
31 -25 -4 -43 -17 -65 -47 -33 -47 -52 -105 -104 -328 -54 -235 -58 -250 -66
-250 -6 0 -52 176 -94 365 -31 139 -54 192 -98 230 -52 45 -101 48 -147 9 -60
-51 -68 -78 -200 -649 -12 -49 -32 -135 -45 -190 -13 -55 -49 -208 -80 -340
-51 -220 -58 -242 -85 -267 -33 -31 -45 -33 -86 -18 -66 26 -68 61 -13 292 22
95 58 250 80 343 22 94 54 229 71 300 89 382 102 422 150 467 26 24 28 31 17
44 -35 43 -107 56 -149 27z m458 -453 c23 -96 62 -262 87 -368 31 -131 44
-204 40 -225 -23 -116 -79 -326 -85 -320 -4 4 -20 62 -35 128 -15 66 -44 192
-65 280 -91 381 -86 344 -66 421 10 38 27 110 37 159 25 113 28 121 38 109 4
-5 27 -88 49 -184z"/>
<path d="M1658 1907 c-56 -46 -80 -129 -223 -747 -169 -732 -174 -750 -232
-804 -26 -24 -26 -26 -9 -45 64 -71 159 -44 211 59 16 31 103 376 123 484 12
68 28 52 51 -51 50 -219 90 -371 105 -400 41 -80 126 -132 217 -133 81 0 141
24 189 76 80 87 88 157 39 361 -17 70 -41 173 -54 228 -14 55 -49 206 -79 335
-127 543 -132 561 -174 611 -43 52 -119 64 -164 26z m138 -533 c104 -439 154
-653 179 -757 13 -54 21 -106 18 -115 -22 -62 -99 -84 -141 -39 -21 23 -33 67
-131 482 -95 406 -88 353 -64 453 12 48 30 124 40 170 10 45 22 81 27 79 5 -2
38 -124 72 -273z"/>
</g>
</svg>
